<svg xmlns="http://www.w3.org/2000/svg" xmlns:xlink="http://www.w3.org/1999/xlink" width="136" height="136" viewBox="0 0 136 136"><defs><style>.a{fill:#fff;stroke:#707070;}.b{clip-path:url(#a);}.c{fill:#012e02;}</style><clipPath id="a"><rect class="a" width="136" height="136" transform="translate(248 1556)"/></clipPath></defs><g class="b" transform="translate(-248 -1556)"><g transform="translate(248.27 1556.27)"><path class="c" d="M128.93,20.13H6.53a6.678,6.678,0,0,0-6.8,6.8V72.263a6.678,6.678,0,0,0,6.8,6.8h122.4a6.678,6.678,0,0,0,6.8-6.8V26.93A6.678,6.678,0,0,0,128.93,20.13ZM131.2,72.263a2.141,2.141,0,0,1-2.267,2.267H6.53a2.141,2.141,0,0,1-2.267-2.267V26.93A2.271,2.271,0,0,1,6.53,24.663h122.4A2.141,2.141,0,0,1,131.2,26.93V72.263Z"/><path class="c" d="M58.663,40.53H76.8A2.267,2.267,0,0,0,76.8,36H58.663a2.267,2.267,0,1,0,0,4.533Z"/><path class="c" d="M124.4,65.463H11.063a2.267,2.267,0,0,0,0,4.533H124.4a2.267,2.267,0,1,0,0-4.533Z"/><path class="c" d="M124.4,56.4H11.063a2.267,2.267,0,0,0,0,4.533H124.4a2.267,2.267,0,0,0,0-4.533Z"/><path class="c" d="M68.863,95.157c-2.267-1.133-3.4-2.493-3.4-3.627s1.36-2.493,3.173-3.853a2.165,2.165,0,0,0,.907-2.947,2,2,0,0,0-2.947-.907c-3.627,2.04-5.667,4.76-5.667,7.707S62.97,97.2,66.6,99.464c2.267,1.133,3.4,2.493,3.4,3.627s-1.36,2.493-3.4,3.627a2,2,0,0,0-.907,2.947,2.381,2.381,0,0,0,2.04,1.133,2.044,2.044,0,0,0,1.133-.227c3.627-2.04,5.667-4.76,5.667-7.707S72.49,96.97,68.863,95.157Z"/><path class="c" d="M43.93,99.69c-2.267-1.133-3.4-2.493-3.4-3.627S41.89,93.57,43.7,92.21a2.18,2.18,0,0,0-2.04-3.853C38.037,90.4,36,93.117,36,96.064s2.04,5.667,5.667,7.933c2.267,1.133,3.4,2.493,3.4,3.627s-1.36,2.493-3.4,3.627a2,2,0,0,0-.907,2.947,2.381,2.381,0,0,0,2.04,1.133,2.044,2.044,0,0,0,1.133-.227c3.627-2.04,5.667-4.76,5.667-7.707S47.557,101.5,43.93,99.69Z"/><path class="c" d="M93.8,99.69c-2.267-1.133-3.4-2.493-3.4-3.627s1.36-2.493,3.173-3.853a2.165,2.165,0,0,0,.907-2.947,2,2,0,0,0-2.947-.907c-3.627,2.04-5.667,4.76-5.667,7.707S87.9,101.73,91.53,104c2.267,1.133,3.4,2.493,3.4,3.627s-1.36,2.493-3.4,3.627a2,2,0,0,0-.907,2.947,2.381,2.381,0,0,0,2.04,1.133A2.044,2.044,0,0,0,93.8,115.1c3.627-2.04,5.667-4.76,5.667-7.707S97.423,101.5,93.8,99.69Z"/></g></g></svg>