<svg xmlns="http://www.w3.org/2000/svg" xmlns:xlink="http://www.w3.org/1999/xlink" width="216" height="216" viewBox="0 0 216 216"><defs><style>.a{fill:#fff;stroke:#707070;}.b{clip-path:url(#a);}.c{fill:#1e1e1e;}</style><clipPath id="a"><rect class="a" width="216" height="216" transform="translate(261 608)"/></clipPath></defs><g class="b" transform="translate(-261 -608)"><g transform="translate(261 608)"><g transform="translate(104.448)"><path d="M74.9,1.236a4.219,4.219,0,0,0-7.2,2.983,4.219,4.219,0,1,0,7.2-2.983Z" transform="translate(-67.698)"/></g><path class="c" d="M207.562,40.771V28.9a11.618,11.618,0,0,0-11.6-11.6h-7.325A21.125,21.125,0,0,0,167.889,0H126.7a4.219,4.219,0,0,0,0,8.437h41.186a12.671,12.671,0,0,1,12.656,12.656V33.75H140.062V21.094a4.219,4.219,0,0,0-4.219-4.219H80.156a4.219,4.219,0,0,0-4.219,4.219V33.75H35.493V21.094A12.671,12.671,0,0,1,48.149,8.437H90.492a4.219,4.219,0,0,0,0-8.437H48.149A21.125,21.125,0,0,0,27.405,17.29H20.042a11.618,11.618,0,0,0-11.6,11.6V40.771A12.676,12.676,0,0,0,0,52.7V68.466a12.656,12.656,0,1,0,25.312,0V52.7a12.677,12.677,0,0,0-8.437-11.931V28.9a3.171,3.171,0,0,1,3.167-3.167h7.013V165.8a21.118,21.118,0,0,0,12.25,19.143v15.029a16.031,16.031,0,1,0,32.062,0V186.89H144.74v13.078a16.031,16.031,0,1,0,32.062,0v-15.06A21.119,21.119,0,0,0,188.983,165.8V25.728h6.974a3.171,3.171,0,0,1,3.167,3.167V40.771A12.676,12.676,0,0,0,190.688,52.7V68.466a12.656,12.656,0,1,0,25.312,0V52.7A12.678,12.678,0,0,0,207.562,40.771ZM16.875,68.467a4.219,4.219,0,0,1-8.437,0V52.7a4.219,4.219,0,1,1,8.437,0ZM137.8,42.187,124.661,55.329a4.219,4.219,0,1,0,5.966,5.967l19.108-19.108h24.823L112.22,104.525V42.187ZM84.375,25.312h47.25V33.75H84.375Zm1.385,73.659a4.221,4.221,0,0,0-5.967,0L53.57,125.195h-2.7L37.818,112.148l65.964-65.964v79.012H65.5l20.257-20.257A4.218,4.218,0,0,0,85.759,98.972ZM35.493,42.187H95.846L35.493,102.541ZM62.93,199.968a7.594,7.594,0,1,1-15.187,0V186.89H62.93Zm105.434,0a7.594,7.594,0,1,1-15.187,0V186.89h15.187ZM180.545,165.8a12.671,12.671,0,0,1-12.656,12.656H48.149A12.671,12.671,0,0,1,35.493,165.8V121.755L46.135,132.4a4.219,4.219,0,0,0,2.983,1.236H166.881a4.219,4.219,0,0,0,2.983-1.236l10.681-10.681Zm0-56.013-15.411,15.411H112.22v-8.737l68.325-68.325Zm27.017-41.317a4.219,4.219,0,0,1-8.437,0V52.7a4.219,4.219,0,0,1,8.438,0Z"/><g transform="translate(46.425 143.387)"><path d="M42.746,92.936A12.656,12.656,0,1,0,55.4,105.592,12.671,12.671,0,0,0,42.746,92.936Zm0,16.875a4.219,4.219,0,1,1,4.219-4.219A4.224,4.224,0,0,1,42.746,109.811Z" transform="translate(-30.09 -92.936)"/></g><g transform="translate(144.262 143.387)"><path d="M106.16,92.936a12.656,12.656,0,1,0,12.656,12.656A12.671,12.671,0,0,0,106.16,92.936Zm0,16.875a4.219,4.219,0,1,1,4.219-4.219A4.224,4.224,0,0,1,106.16,109.811Z" transform="translate(-93.503 -92.936)"/></g><g transform="translate(81.879 143.387)"><path d="M101.163,92.936H57.288a4.219,4.219,0,0,0-4.219,4.219v16.875a4.219,4.219,0,0,0,4.219,4.219h43.875a4.219,4.219,0,0,0,4.219-4.219V97.154A4.219,4.219,0,0,0,101.163,92.936Zm-4.219,16.875H61.507v-8.437H96.944Z" transform="translate(-53.069 -92.936)"/></g></g></g></svg>