<svg xmlns="http://www.w3.org/2000/svg" xmlns:xlink="http://www.w3.org/1999/xlink" width="216" height="216" viewBox="0 0 216 216"><defs><style>.a{fill:#fff;stroke:#707070;}.b{clip-path:url(#a);}.c{fill:#012e02;}</style><clipPath id="a"><rect class="a" width="216" height="216" transform="translate(462 595)"/></clipPath></defs><g class="b" transform="translate(-462 -595)"><g transform="translate(462 595)"><g transform="translate(40.719 61.481)"><path class="c" d="M50.86,39.849H30.61a4.219,4.219,0,0,0-4.219,4.219V67.693a4.219,4.219,0,0,0,4.219,4.219H50.86a4.219,4.219,0,0,0,4.219-4.219V44.068A4.219,4.219,0,0,0,50.86,39.849ZM46.642,63.474H34.829V48.286H46.642Z" transform="translate(-26.392 -39.849)"/></g><g transform="translate(40.719 108.731)"><path class="c" d="M50.86,70.474H30.61a4.219,4.219,0,0,0-4.219,4.219V98.318a4.219,4.219,0,0,0,4.219,4.219H50.86a4.219,4.219,0,0,0,4.219-4.219V74.693A4.219,4.219,0,0,0,50.86,70.474ZM46.642,94.1H34.829V78.911H46.642Z" transform="translate(-26.392 -70.474)"/></g><g transform="translate(40.719 155.981)"><path class="c" d="M50.86,101.1H30.61a4.219,4.219,0,0,0-4.219,4.219v23.625a4.219,4.219,0,0,0,4.219,4.219H50.86a4.219,4.219,0,0,0,4.219-4.219V105.318A4.219,4.219,0,0,0,50.86,101.1Zm-4.219,23.625H34.829V109.536H46.642Z" transform="translate(-26.392 -101.099)"/></g><g transform="translate(150.819 155.981)"><path class="c" d="M122.222,101.1h-20.25a4.219,4.219,0,0,0-4.219,4.219v23.625a4.219,4.219,0,0,0,4.219,4.219h20.25a4.219,4.219,0,0,0,4.219-4.219V105.318A4.219,4.219,0,0,0,122.222,101.1ZM118,124.724H106.191V109.536H118Z" transform="translate(-97.753 -101.099)"/></g><g transform="translate(77.419 61.481)"><path class="c" d="M74.648,39.849H54.4a4.219,4.219,0,0,0-4.219,4.219V67.693A4.219,4.219,0,0,0,54.4,71.911h20.25a4.219,4.219,0,0,0,4.219-4.219V44.068A4.219,4.219,0,0,0,74.648,39.849ZM70.429,63.474H58.616V48.286H70.429Z" transform="translate(-50.179 -39.849)"/></g><g transform="translate(114.118 61.481)"><path class="c" d="M98.434,39.849H78.184a4.219,4.219,0,0,0-4.219,4.219V67.693a4.219,4.219,0,0,0,4.219,4.219h20.25a4.219,4.219,0,0,0,4.219-4.219V44.068A4.219,4.219,0,0,0,98.434,39.849ZM94.216,63.474H82.4V48.286H94.216Z" transform="translate(-73.966 -39.849)"/></g><g transform="translate(77.419 108.731)"><path class="c" d="M74.648,70.474H54.4a4.219,4.219,0,0,0-4.219,4.219V98.318a4.219,4.219,0,0,0,4.219,4.219h20.25a4.219,4.219,0,0,0,4.219-4.219V74.693A4.219,4.219,0,0,0,74.648,70.474ZM70.429,94.1H58.616V78.911H70.429Z" transform="translate(-50.179 -70.474)"/></g><g transform="translate(114.118 108.731)"><path class="c" d="M98.434,70.474H78.184a4.219,4.219,0,0,0-4.219,4.219V98.318a4.219,4.219,0,0,0,4.219,4.219h20.25a4.219,4.219,0,0,0,4.219-4.219V74.693A4.219,4.219,0,0,0,98.434,70.474ZM94.216,94.1H82.4V78.911H94.216Z" transform="translate(-73.966 -70.474)"/></g><g transform="translate(150.819 61.481)"><path class="c" d="M122.222,39.849h-20.25a4.219,4.219,0,0,0-4.219,4.219V67.693a4.219,4.219,0,0,0,4.219,4.219h20.25a4.219,4.219,0,0,0,4.219-4.219V44.068A4.219,4.219,0,0,0,122.222,39.849ZM118,63.474H106.191V48.286H118Z" transform="translate(-97.753 -39.849)"/></g><g transform="translate(150.819 108.731)"><path class="c" d="M122.222,70.474h-20.25a4.219,4.219,0,0,0-4.219,4.219V98.318a4.219,4.219,0,0,0,4.219,4.219h20.25a4.219,4.219,0,0,0,4.219-4.219V74.693A4.219,4.219,0,0,0,122.222,70.474ZM118,94.1H106.191V78.911H118Z" transform="translate(-97.753 -70.474)"/></g><path class="c" d="M211.781,207.563H195.956V43.9a4.219,4.219,0,0,0-4.219-4.219H168.323V24.469A4.219,4.219,0,0,0,164.1,20.25h-23.2V4.219A4.219,4.219,0,0,0,136.688,0H79.313a4.219,4.219,0,0,0-4.219,4.219V20.25H51.9a4.219,4.219,0,0,0-4.219,4.219V39.683H24.262A4.219,4.219,0,0,0,20.044,43.9V207.563H4.219a4.219,4.219,0,0,0,0,8.438H211.781a4.219,4.219,0,0,0,0-8.437ZM83.531,8.438h48.938V20.25H83.531Zm42.188,199.125H96.529l29.19-29.19Zm0-41.1c-.094.079-.187.16-.275.249L90.281,201.877V184l27.06-27.06h8.377Zm-35.438,5.6V156.938h15.127Zm97.238,35.5H134.156V156.938h1.477a4.219,4.219,0,0,0,0-8.437H80.367a4.219,4.219,0,0,0,0,8.438h1.477v50.625H28.481V48.12H75.312a4.219,4.219,0,0,0,0-8.438h-19.2v-11h103.77v11H108.643a4.219,4.219,0,0,0,0,8.438h78.876Z"/><g transform="translate(87.543 39.682)"><path class="c" d="M63.942,26.956a4.217,4.217,0,1,0,1.236,2.983A4.251,4.251,0,0,0,63.942,26.956Z" transform="translate(-56.741 -25.72)"/></g></g></g></svg>