<svg xmlns="http://www.w3.org/2000/svg" xmlns:xlink="http://www.w3.org/1999/xlink" width="136" height="136" viewBox="0 0 136 136"><defs><style>.a{fill:#fff;stroke:#707070;}.b{clip-path:url(#a);}.c{fill:#ff3939;}</style><clipPath id="a"><rect class="a" width="136" height="136" transform="translate(626 1548)"/></clipPath></defs><g class="b" transform="translate(-626 -1548)"><g transform="translate(626 1554.963)"><g transform="translate(0 0)"><path class="c" d="M133.291,7.167H2.709A2.709,2.709,0,0,0,0,9.876V126.533a2.709,2.709,0,0,0,2.709,2.709H133.291A2.709,2.709,0,0,0,136,126.533V9.876A2.709,2.709,0,0,0,133.291,7.167ZM5.418,70.914h20.59V94.755H5.418ZM130.582,65.5h-13a2.709,2.709,0,1,0,0,5.418h13V94.755h-13a2.709,2.709,0,1,0,0,5.418h13v23.651H5.418V100.173h20.59v17.61a2.709,2.709,0,0,0,2.709,2.709h78.566a2.709,2.709,0,0,0,2.709-2.709V41.655h20.59V65.5ZM31.426,115.073V21.336h73.147v93.737H31.426Zm99.155-78.837h-20.59V18.627a2.709,2.709,0,0,0-2.709-2.709H28.717a2.709,2.709,0,0,0-2.709,2.709V65.5H5.418V41.655H19.235a2.709,2.709,0,1,0,0-5.418H5.418V12.586H130.582V36.237Z" transform="translate(0 -7.167)"/></g><g transform="translate(50.661 34.488)"><path class="c" d="M89.235,67.028,56.454,43.188a2.709,2.709,0,0,0-4.3,2.191V93.06a2.709,2.709,0,0,0,4.3,2.191L89.235,71.411a2.71,2.71,0,0,0,0-4.382ZM57.57,87.74V50.7l25.465,18.52Z" transform="translate(-52.151 -42.669)"/></g><g transform="translate(96.175 17.149)"><path class="c" d="M101.713,24.821A2.709,2.709,0,0,0,99,27.53V50.558a2.709,2.709,0,0,0,5.418,0V27.53A2.709,2.709,0,0,0,101.713,24.821Z" transform="translate(-99.004 -24.821)"/></g><g transform="translate(96.175 49.388)"><path class="c" d="M101.713,58.008A2.709,2.709,0,0,0,99,60.717v3.522a2.709,2.709,0,0,0,5.418,0V60.717A2.709,2.709,0,0,0,101.713,58.008Z" transform="translate(-99.004 -58.008)"/></g></g></g></svg>